<svg width="369" height="281" viewBox="0 0 369 281" fill="none" xmlns="http://www.w3.org/2000/svg">
<mask id="path-1-inside-1_2125_721" fill="white">
<path d="M359.687 91.0186L359.627 91.8671L358.839 91.8974V97.5339L356.068 100.291L356.249 101.337L363.11 107.473L365.321 111.276L368.774 113.67L368.486 115.746L367.017 115.883L364.246 117.701L362.307 117.428L359.021 114.458L357.855 114.231L347.178 114.458L346.239 115.049L346.557 119.11L342.574 124.958L340.848 125.504L339.712 124.08L336.774 123.671L333.927 124.277L328.036 133.443L322.841 136.428L319.388 141.459L312.892 146.383L310.786 148.929L307.546 150.277H306.001L302.972 148.035L300.882 149.004L297.944 145.519L284.966 148.641L283.073 149.595L282.982 150.459L280.907 152.095L278.575 152.792L274.94 150.459L273.986 150.716L269.852 157.853L263.945 159.807L263.87 161.368L267.656 163.004L268.019 165.429L262.219 172.535L261.098 175.338L262.31 181.793L259.705 184.126L258.327 183.959L255.298 186.293L253.314 194.596L253.996 198.581L258.933 200.141L260.901 202.172L264.127 211.051L265.505 217.278L265.157 222.293H262.052L261.356 223.157L260.493 227.187L258.16 229.005L258.933 230.99L257.812 233.505L257.721 238.096L255.389 239.309L242.577 241.218L237.822 240.945L232.203 239.309L229.598 240.778L225.555 240.521L223.389 241.899L220.012 239.915L213.091 240.081L209.29 242.43L204.959 243.021L201.415 244.93L200.552 246.233L200.718 249.612L198.644 252.46L190.95 252.036L189.224 254.278L182.985 256.536L179.789 256.354L174.958 254.188L172.535 254.278L166.568 256.612L162.07 255.581L157.133 257.309L154.195 255.066L152.378 255.142L148.577 257.657L144.503 255.839L139.581 257.748L135.598 254.536L129.631 252.369L121.151 251.157L119.167 253.157L118.213 255.672L116.486 256.794L114.487 256.885L112.761 253.415L108.339 253.157L105.658 254.627L105.84 257.566L105.234 258.097H99.2673L95.1935 259.991L90.8775 260.339L89.3933 261.642L87.8941 263.536L85.7284 269.688L80.0493 280.339L78.5501 280.597L77.5203 279.733L76.2179 273.764L75.1729 272.627L73.3556 272.46L72.1441 269.082L66.0107 268.642L64.0116 267.779L62.6335 266.142L60.5587 256.536L59.5138 255.491L56.9241 255.672L53.1229 257.915H51.3056L45.672 262.157L43.5215 265.248L35.2073 266.218L33.9958 267.263L31.7393 266.657L29.2708 264.006L26.7266 258.688L27.5141 256.278L31.0578 252.975L32.6177 249.687L29.604 241.718L27.7715 240.733L16.4285 243.339L11.0675 242.036L9.85594 243.415L6.3122 242.46L3.63167 236.142L3.44993 233.899L6.14562 229.308L6.28191 225.505L5.34295 223.566L0.0273438 220.202L1.49633 218.172L2.07182 213.793L6.16075 206.596L7.43286 205.747L16.0348 204.899L17.8672 203.778L20.4115 198.838L26.4691 199.672L27.1809 202.081L28.8771 203.353L31.4061 204.475L36.4946 205.187L40.0081 208.141L44.8088 207.444L48.8977 208.005L54.2588 212.232L60.0438 212.384L62.4518 214.929L67.9491 212.384L70.4933 212.096L75.4304 212.52L78.6712 214.354L83.4719 212.945L84.8803 211.823L90.09 210.551L93.6186 206.308L97.2835 205.884L98.4193 204.475L106.597 201.793L110.262 199.399L110.686 196.429L112.094 195.444L111.11 191.626L107.733 187.535L105.476 185.99L107.021 184.293L105.476 183.02L105.052 181.611L102.644 180.626L101.388 181.05L99.6914 183.171H97.7075L95.3147 180.065L92.3465 172.58L88.4089 170.035L82.4724 168.914L82.3361 166.929L84.7289 160.868L84.5926 159.035L82.6239 156.201L83.896 151.974L83.3205 150.413L81.9121 149.429L77.2628 147.883L81.7758 143.928V141.959L81.064 139.974L79.3679 138.428L72.8861 135.883L71.9018 134.746L75.9907 131.792V130.656L73.7342 127.837L75.2789 121.489L74.7186 119.792L73.3102 118.671H71.19L61.4523 121.352L56.2881 123.822L51.0785 120.595L50.1244 119.549L50.3818 118.868L54.7434 113.731L56.697 113.322L59.6349 109.428L59.0292 107.352L61.7097 104.413L62.2398 100.852L67.1616 101.034L67.3433 99.64L71.2506 97.2157L71.9623 96.0641L71.4171 94.7157L72.977 94.2763L75.0518 95.5793H79.2921L79.6405 99.64L82.5784 102.504L84.2292 103.276L85.2589 102.413L87.258 102.504L90.6351 105.095L92.1799 107.352L93.6488 107.776L94.1789 108.989L97.3743 108.125L96.602 104.413L96.9503 102.67L99.5399 99.6248L99.6308 93.852L99.0705 92.155L95.8145 91.5944L96.2537 89.261L97.3743 88.1398L94.7847 82.3367L91.3166 80.3518L92.1041 78.867L95.2087 78.9578L95.9053 76.5336L97.4652 77.0488L101.312 81.8973L102.175 85.367L104.507 87.3519L105.976 86.8368L106.143 84.3216L107.536 83.7155L109.096 86.5792L116.698 89.3519L119.909 91.852L122.499 92.2005L125.361 91.2459L126.481 87.3519L126.572 80.867L128.041 80.7761L129.162 82.2458L133.312 82.3519L135.129 80.867L134.962 78.867L137.128 71.7759L134.781 69.3517L134.962 68.2304L136.522 67.2759L138.158 69.185L139.627 69.0032L144.821 67.0183L146.805 62.4273L154.059 60.5182L154.862 59.1394L157.891 57.3212L162.479 55.7606L171.051 54.5484L173.731 53.6848L175.64 51.9575L178.063 47.3665L176.881 43.9422L180.895 39.6846L185.514 38.8967L187.482 35.4724L187.77 32.9118L186.301 30.0633L186.104 24.6693L187.376 19.9571L188.845 18.1843L196.115 16.7146L200.431 17.3964L202.596 15.2297V13.957L205.64 12.6842L206.413 11.6994L206.609 8.65387L209.063 6.69931L212.894 7.97205L218.104 7.866L227.024 9.15388L228.008 8.16903V6.50233L225.949 3.85078L226.252 2.75985L232.521 0.699219L235.474 4.33565L235.868 7.29023L234.687 9.15388L228.008 13.0782L224.086 17.8813V19.851L227.721 22.6086L230.265 25.8359L235.762 28.3966H237.231L237.928 27.5178L238.609 20.6389L240.472 17.1995L247.832 10.5175L248.226 7.66902L250.089 6.00232L250.195 3.15381L253.723 3.35077L254.814 4.24474L254.904 7.97205L257.221 9.15388L257.812 10.5175L258.403 19.2601L263.007 20.351L266.051 21.9116L270.17 22.0177L272.926 26.0329L277.53 28.2905L279.302 33.6997L282.255 34.0936L285.284 37.624L288.04 38.6088L291.175 42.3362L291.765 47.0483L293.931 48.6241H296.188L296.869 49.3059L298.732 54.609L299.913 55.306L302.366 54.806L306.788 63.6546L310.226 64.8213L312.574 67.6698L315.724 67.7759L319.055 71.7911L321.993 71.3062L330.641 74.4427L333.094 77.5942L331.034 82.5034L331.716 85.6398L332.503 86.0337L333.775 85.3519L335.547 87.2155L337.41 86.7307L338.591 87.6095L341.529 87.8065L343.195 90.155L352.327 90.9429L354.387 89.4731H356.053L359.687 91.0186Z"/>
</mask>
<path d="M359.687 91.0186L359.627 91.8671L358.839 91.8974V97.5339L356.068 100.291L356.249 101.337L363.11 107.473L365.321 111.276L368.774 113.67L368.486 115.746L367.017 115.883L364.246 117.701L362.307 117.428L359.021 114.458L357.855 114.231L347.178 114.458L346.239 115.049L346.557 119.11L342.574 124.958L340.848 125.504L339.712 124.08L336.774 123.671L333.927 124.277L328.036 133.443L322.841 136.428L319.388 141.459L312.892 146.383L310.786 148.929L307.546 150.277H306.001L302.972 148.035L300.882 149.004L297.944 145.519L284.966 148.641L283.073 149.595L282.982 150.459L280.907 152.095L278.575 152.792L274.94 150.459L273.986 150.716L269.852 157.853L263.945 159.807L263.87 161.368L267.656 163.004L268.019 165.429L262.219 172.535L261.098 175.338L262.31 181.793L259.705 184.126L258.327 183.959L255.298 186.293L253.314 194.596L253.996 198.581L258.933 200.141L260.901 202.172L264.127 211.051L265.505 217.278L265.157 222.293H262.052L261.356 223.157L260.493 227.187L258.16 229.005L258.933 230.99L257.812 233.505L257.721 238.096L255.389 239.309L242.577 241.218L237.822 240.945L232.203 239.309L229.598 240.778L225.555 240.521L223.389 241.899L220.012 239.915L213.091 240.081L209.29 242.43L204.959 243.021L201.415 244.93L200.552 246.233L200.718 249.612L198.644 252.46L190.95 252.036L189.224 254.278L182.985 256.536L179.789 256.354L174.958 254.188L172.535 254.278L166.568 256.612L162.07 255.581L157.133 257.309L154.195 255.066L152.378 255.142L148.577 257.657L144.503 255.839L139.581 257.748L135.598 254.536L129.631 252.369L121.151 251.157L119.167 253.157L118.213 255.672L116.486 256.794L114.487 256.885L112.761 253.415L108.339 253.157L105.658 254.627L105.84 257.566L105.234 258.097H99.2673L95.1935 259.991L90.8775 260.339L89.3933 261.642L87.8941 263.536L85.7284 269.688L80.0493 280.339L78.5501 280.597L77.5203 279.733L76.2179 273.764L75.1729 272.627L73.3556 272.46L72.1441 269.082L66.0107 268.642L64.0116 267.779L62.6335 266.142L60.5587 256.536L59.5138 255.491L56.9241 255.672L53.1229 257.915H51.3056L45.672 262.157L43.5215 265.248L35.2073 266.218L33.9958 267.263L31.7393 266.657L29.2708 264.006L26.7266 258.688L27.5141 256.278L31.0578 252.975L32.6177 249.687L29.604 241.718L27.7715 240.733L16.4285 243.339L11.0675 242.036L9.85594 243.415L6.3122 242.46L3.63167 236.142L3.44993 233.899L6.14562 229.308L6.28191 225.505L5.34295 223.566L0.0273438 220.202L1.49633 218.172L2.07182 213.793L6.16075 206.596L7.43286 205.747L16.0348 204.899L17.8672 203.778L20.4115 198.838L26.4691 199.672L27.1809 202.081L28.8771 203.353L31.4061 204.475L36.4946 205.187L40.0081 208.141L44.8088 207.444L48.8977 208.005L54.2588 212.232L60.0438 212.384L62.4518 214.929L67.9491 212.384L70.4933 212.096L75.4304 212.52L78.6712 214.354L83.4719 212.945L84.8803 211.823L90.09 210.551L93.6186 206.308L97.2835 205.884L98.4193 204.475L106.597 201.793L110.262 199.399L110.686 196.429L112.094 195.444L111.11 191.626L107.733 187.535L105.476 185.99L107.021 184.293L105.476 183.02L105.052 181.611L102.644 180.626L101.388 181.05L99.6914 183.171H97.7075L95.3147 180.065L92.3465 172.58L88.4089 170.035L82.4724 168.914L82.3361 166.929L84.7289 160.868L84.5926 159.035L82.6239 156.201L83.896 151.974L83.3205 150.413L81.9121 149.429L77.2628 147.883L81.7758 143.928V141.959L81.064 139.974L79.3679 138.428L72.8861 135.883L71.9018 134.746L75.9907 131.792V130.656L73.7342 127.837L75.2789 121.489L74.7186 119.792L73.3102 118.671H71.19L61.4523 121.352L56.2881 123.822L51.0785 120.595L50.1244 119.549L50.3818 118.868L54.7434 113.731L56.697 113.322L59.6349 109.428L59.0292 107.352L61.7097 104.413L62.2398 100.852L67.1616 101.034L67.3433 99.64L71.2506 97.2157L71.9623 96.0641L71.4171 94.7157L72.977 94.2763L75.0518 95.5793H79.2921L79.6405 99.64L82.5784 102.504L84.2292 103.276L85.2589 102.413L87.258 102.504L90.6351 105.095L92.1799 107.352L93.6488 107.776L94.1789 108.989L97.3743 108.125L96.602 104.413L96.9503 102.67L99.5399 99.6248L99.6308 93.852L99.0705 92.155L95.8145 91.5944L96.2537 89.261L97.3743 88.1398L94.7847 82.3367L91.3166 80.3518L92.1041 78.867L95.2087 78.9578L95.9053 76.5336L97.4652 77.0488L101.312 81.8973L102.175 85.367L104.507 87.3519L105.976 86.8368L106.143 84.3216L107.536 83.7155L109.096 86.5792L116.698 89.3519L119.909 91.852L122.499 92.2005L125.361 91.2459L126.481 87.3519L126.572 80.867L128.041 80.7761L129.162 82.2458L133.312 82.3519L135.129 80.867L134.962 78.867L137.128 71.7759L134.781 69.3517L134.962 68.2304L136.522 67.2759L138.158 69.185L139.627 69.0032L144.821 67.0183L146.805 62.4273L154.059 60.5182L154.862 59.1394L157.891 57.3212L162.479 55.7606L171.051 54.5484L173.731 53.6848L175.64 51.9575L178.063 47.3665L176.881 43.9422L180.895 39.6846L185.514 38.8967L187.482 35.4724L187.77 32.9118L186.301 30.0633L186.104 24.6693L187.376 19.9571L188.845 18.1843L196.115 16.7146L200.431 17.3964L202.596 15.2297V13.957L205.64 12.6842L206.413 11.6994L206.609 8.65387L209.063 6.69931L212.894 7.97205L218.104 7.866L227.024 9.15388L228.008 8.16903V6.50233L225.949 3.85078L226.252 2.75985L232.521 0.699219L235.474 4.33565L235.868 7.29023L234.687 9.15388L228.008 13.0782L224.086 17.8813V19.851L227.721 22.6086L230.265 25.8359L235.762 28.3966H237.231L237.928 27.5178L238.609 20.6389L240.472 17.1995L247.832 10.5175L248.226 7.66902L250.089 6.00232L250.195 3.15381L253.723 3.35077L254.814 4.24474L254.904 7.97205L257.221 9.15388L257.812 10.5175L258.403 19.2601L263.007 20.351L266.051 21.9116L270.17 22.0177L272.926 26.0329L277.53 28.2905L279.302 33.6997L282.255 34.0936L285.284 37.624L288.04 38.6088L291.175 42.3362L291.765 47.0483L293.931 48.6241H296.188L296.869 49.3059L298.732 54.609L299.913 55.306L302.366 54.806L306.788 63.6546L310.226 64.8213L312.574 67.6698L315.724 67.7759L319.055 71.7911L321.993 71.3062L330.641 74.4427L333.094 77.5942L331.034 82.5034L331.716 85.6398L332.503 86.0337L333.775 85.3519L335.547 87.2155L337.41 86.7307L338.591 87.6095L341.529 87.8065L343.195 90.155L352.327 90.9429L354.387 89.4731H356.053L359.687 91.0186Z" fill="#3C5F63" stroke="#E5E4E9" stroke-width="2" mask="url(#path-1-inside-1_2125_721)"/>
</svg>
