<svg width="143" height="109" viewBox="0 0 143 109" fill="none" xmlns="http://www.w3.org/2000/svg">
<mask id="path-1-inside-1_249_4309" fill="white">
<path d="M139.387 35.15L139.363 35.4772L139.06 35.4888V37.6619L137.991 38.7251L138.061 39.1282L140.706 41.494L141.559 42.9603L142.89 43.8833L142.779 44.6836L142.212 44.7361L141.144 45.4371L140.397 45.332L139.13 44.187L138.68 44.0994L134.564 44.187L134.202 44.4148L134.324 45.9804L132.789 48.2353L132.123 48.4456L131.685 47.8964L130.553 47.7387L129.455 47.9724L127.184 51.5066L125.181 52.6574L123.85 54.5968L121.345 56.4953L120.533 57.4767L119.284 57.9966H118.688L117.521 57.1321L116.715 57.5059L115.582 56.1624L110.578 57.3657L109.848 57.7338L109.813 58.0667L109.014 58.6976L108.114 58.9663L106.713 58.0667L106.345 58.166L104.751 60.9174L102.474 61.671L102.445 62.2727L103.905 62.9036L104.045 63.8382L101.809 66.578L101.376 67.6587L101.844 70.1472L100.839 71.0468L100.308 70.9825L99.1402 71.8822L98.3753 75.0834L98.6381 76.6197L100.542 77.2214L101.301 78.0042L102.544 81.4274L103.076 83.8283L102.941 85.7618H101.744L101.476 86.0948L101.143 87.6487L100.244 88.3497L100.542 89.115L100.109 90.0846L100.074 91.8547L99.1752 92.322L94.2357 93.058L92.4023 92.9529L90.2362 92.322L89.2319 92.8886L87.673 92.7893L86.838 93.3209L85.536 92.5557L82.8677 92.6199L81.4022 93.5254L79.7323 93.7532L78.366 94.4892L78.0332 94.9916L78.0974 96.2943L77.2975 97.3925L74.3315 97.229L73.6659 98.0935L71.2603 98.9639L70.0283 98.8938L68.1658 98.0585L67.2316 98.0935L64.9311 98.9931L63.197 98.5959L61.2936 99.2618L60.1609 98.3973L59.4602 98.4265L57.9947 99.3962L56.4241 98.6952L54.5265 99.4312L52.9909 98.1928L50.6905 97.3575L47.4208 96.8901L46.6559 97.6612L46.2881 98.6309L45.6225 99.0632L44.8517 99.0983L44.1861 97.7605L42.4812 97.6612L41.4478 98.2279L41.5178 99.3611L41.2843 99.5656H38.9838L37.4132 100.296L35.7492 100.43L35.177 100.933L34.5989 101.663L33.764 104.034L31.5745 108.141L30.9965 108.24L30.5994 107.907L30.0973 105.606L29.6944 105.168L28.9938 105.103L28.5267 103.801L26.162 103.631L25.3913 103.298L24.8599 102.668L24.06 98.9639L23.6572 98.5608L22.6588 98.6309L21.1932 99.4955H20.4926L18.3206 101.131L17.4915 102.323L14.286 102.697L13.8189 103.1L12.9489 102.866L11.9972 101.844L11.0163 99.7934L11.3199 98.8646L12.6862 97.5911L13.2876 96.3235L12.1257 93.2508L11.4192 92.8711L7.046 93.8759L4.97909 93.3735L4.51199 93.9051L3.14573 93.537L2.11228 91.1011L2.0422 90.2365L3.08151 88.4665L3.13405 87.0003L2.77205 86.2525L0.722656 84.9557L1.28901 84.1729L1.51089 82.4847L3.08734 79.7099L3.57779 79.3828L6.89419 79.0557L7.60067 78.6234L8.58158 76.719L10.9171 77.0403L11.1915 77.9691L11.8454 78.4598L12.8205 78.8921L14.7823 79.1667L16.1369 80.3058L17.9878 80.0371L19.5642 80.2532L21.6311 81.883L23.8615 81.9414L24.7899 82.9228L26.9093 81.9414L27.8902 81.8304L29.7937 81.994L31.0432 82.7008L32.894 82.1576L33.437 81.7253L35.4456 81.2346L36.806 79.5989L38.219 79.4354L38.6569 78.8921L41.8098 77.8581L43.2227 76.9352L43.3862 75.7902L43.9292 75.4105L43.5497 73.9384L42.2477 72.3612L41.3777 71.7653L41.9733 71.1111L41.3777 70.6204L41.2142 70.0771L40.2859 69.6974L39.8013 69.8609L39.1473 70.6788H38.3824L37.4599 69.4812L36.3155 66.5955L34.7975 65.6141L32.5087 65.1818L32.4561 64.4166L33.3787 62.0799L33.3261 61.3731L32.5671 60.2807L33.0575 58.6509L32.8356 58.0492L32.2927 57.6695L30.5002 57.0737L32.2401 55.549V54.7896L31.9657 54.0243L31.3117 53.4285L28.8128 52.4471L28.4333 52.009L30.0097 50.8699V50.4317L29.1397 49.3452L29.7353 46.8975L29.5193 46.2433L28.9762 45.811H28.1588L24.4045 46.845L22.4135 47.7971L20.405 46.5529L20.0372 46.1498L20.1364 45.8869L21.818 43.9066L22.5712 43.7489L23.7039 42.2476L23.4703 41.4473L24.5038 40.314L24.7081 38.9412L26.6057 39.0113L26.6758 38.4739L28.1822 37.5393L28.4566 37.0953L28.2464 36.5754L28.8478 36.406L29.6477 36.9084H31.2825L31.4168 38.4739L32.5495 39.578L33.186 39.8759L33.583 39.5429L34.3537 39.578L35.6558 40.5769L36.2513 41.4473L36.8177 41.6109L37.022 42.0782L38.254 41.7452L37.9562 40.314L38.0905 39.6423L39.0889 38.4681L39.124 36.2424L38.9079 35.5882L37.6526 35.372L37.8219 34.4724L38.254 34.0401L37.2556 31.8028L35.9185 31.0375L36.2221 30.4651L37.419 30.5001L37.6876 29.5654L38.289 29.7641L39.7721 31.6334L40.1049 32.9711L41.004 33.7364L41.5704 33.5377L41.6346 32.568L42.1718 32.3344L42.7732 33.4384L45.7042 34.5075L46.942 35.4713L47.9404 35.6057L49.0439 35.2377L49.476 33.7364L49.511 31.2361L50.0774 31.2011L50.5095 31.7677L52.1093 31.8086L52.8099 31.2361L52.7457 30.4651L53.5806 27.7312L52.6756 26.7965L52.7457 26.3642L53.3471 25.9962L53.9777 26.7323L54.544 26.6622L56.5467 25.8969L57.3116 24.1269L60.1083 23.3909L60.4178 22.8593L61.5855 22.1583L63.3547 21.5566L66.6594 21.0893L67.6928 20.7563L68.4285 20.0903L69.3627 18.3203L68.9073 17.0001L70.4546 15.3586L72.2354 15.0549L72.9944 13.7347L73.1053 12.7474L72.539 11.6492L72.4631 9.56957L72.9535 7.75283L73.5199 7.06936L76.3225 6.50272L77.9865 6.76559L78.8214 5.93025V5.43954L79.995 4.94885L80.2928 4.56915L80.3687 3.39498L81.3146 2.64141L82.7918 3.13211L84.8003 3.09122L88.2393 3.58775L88.6188 3.20805V2.56547L87.8248 1.54318L87.9415 1.12259L90.3588 0.328125L91.4973 1.73012L91.6491 2.86923L91.1937 3.58775L88.6188 5.10074L87.1066 6.95253V7.71194L88.5079 8.77511L89.4888 10.0194L91.6083 11.0066H92.1746L92.4432 10.6678L92.7059 8.0157L93.4241 6.68966L96.2617 4.1135L96.4135 3.01527L97.1317 2.37269L97.1726 1.27447L98.533 1.35041L98.9534 1.69507L98.9884 3.13211L99.8817 3.58775L100.109 4.1135L100.337 7.48411L102.112 7.90471L103.286 8.5064L104.874 8.54729L105.936 10.0953L107.711 10.9657L108.395 13.0512L109.533 13.2031L110.701 14.5642L111.764 14.9439L112.972 16.3809L113.2 18.1977L114.035 18.8052H114.905L115.168 19.068L115.886 21.1126L116.341 21.3813L117.287 21.1886L118.992 24.6001L120.317 25.0499L121.222 26.1481L122.437 26.189L123.721 27.737L124.854 27.5501L128.188 28.7593L129.134 29.9744L128.34 31.8671L128.602 33.0763L128.906 33.2281L129.396 32.9653L130.08 33.6838L130.798 33.4969L131.253 33.8357L132.386 33.9116L133.028 34.8171L136.549 35.1208L137.343 34.5542H137.985L139.387 35.15Z"/>
</mask>
<path d="M139.387 35.15L139.363 35.4772L139.06 35.4888V37.6619L137.991 38.7251L138.061 39.1282L140.706 41.494L141.559 42.9603L142.89 43.8833L142.779 44.6836L142.212 44.7361L141.144 45.4371L140.397 45.332L139.13 44.187L138.68 44.0994L134.564 44.187L134.202 44.4148L134.324 45.9804L132.789 48.2353L132.123 48.4456L131.685 47.8964L130.553 47.7387L129.455 47.9724L127.184 51.5066L125.181 52.6574L123.85 54.5968L121.345 56.4953L120.533 57.4767L119.284 57.9966H118.688L117.521 57.1321L116.715 57.5059L115.582 56.1624L110.578 57.3657L109.848 57.7338L109.813 58.0667L109.014 58.6976L108.114 58.9663L106.713 58.0667L106.345 58.166L104.751 60.9174L102.474 61.671L102.445 62.2727L103.905 62.9036L104.045 63.8382L101.809 66.578L101.376 67.6587L101.844 70.1472L100.839 71.0468L100.308 70.9825L99.1402 71.8822L98.3753 75.0834L98.6381 76.6197L100.542 77.2214L101.301 78.0042L102.544 81.4274L103.076 83.8283L102.941 85.7618H101.744L101.476 86.0948L101.143 87.6487L100.244 88.3497L100.542 89.115L100.109 90.0846L100.074 91.8547L99.1752 92.322L94.2357 93.058L92.4023 92.9529L90.2362 92.322L89.2319 92.8886L87.673 92.7893L86.838 93.3209L85.536 92.5557L82.8677 92.6199L81.4022 93.5254L79.7323 93.7532L78.366 94.4892L78.0332 94.9916L78.0974 96.2943L77.2975 97.3925L74.3315 97.229L73.6659 98.0935L71.2603 98.9639L70.0283 98.8938L68.1658 98.0585L67.2316 98.0935L64.9311 98.9931L63.197 98.5959L61.2936 99.2618L60.1609 98.3973L59.4602 98.4265L57.9947 99.3962L56.4241 98.6952L54.5265 99.4312L52.9909 98.1928L50.6905 97.3575L47.4208 96.8901L46.6559 97.6612L46.2881 98.6309L45.6225 99.0632L44.8517 99.0983L44.1861 97.7605L42.4812 97.6612L41.4478 98.2279L41.5178 99.3611L41.2843 99.5656H38.9838L37.4132 100.296L35.7492 100.43L35.177 100.933L34.5989 101.663L33.764 104.034L31.5745 108.141L30.9965 108.24L30.5994 107.907L30.0973 105.606L29.6944 105.168L28.9938 105.103L28.5267 103.801L26.162 103.631L25.3913 103.298L24.8599 102.668L24.06 98.9639L23.6572 98.5608L22.6588 98.6309L21.1932 99.4955H20.4926L18.3206 101.131L17.4915 102.323L14.286 102.697L13.8189 103.1L12.9489 102.866L11.9972 101.844L11.0163 99.7934L11.3199 98.8646L12.6862 97.5911L13.2876 96.3235L12.1257 93.2508L11.4192 92.8711L7.046 93.8759L4.97909 93.3735L4.51199 93.9051L3.14573 93.537L2.11228 91.1011L2.0422 90.2365L3.08151 88.4665L3.13405 87.0003L2.77205 86.2525L0.722656 84.9557L1.28901 84.1729L1.51089 82.4847L3.08734 79.7099L3.57779 79.3828L6.89419 79.0557L7.60067 78.6234L8.58158 76.719L10.9171 77.0403L11.1915 77.9691L11.8454 78.4598L12.8205 78.8921L14.7823 79.1667L16.1369 80.3058L17.9878 80.0371L19.5642 80.2532L21.6311 81.883L23.8615 81.9414L24.7899 82.9228L26.9093 81.9414L27.8902 81.8304L29.7937 81.994L31.0432 82.7008L32.894 82.1576L33.437 81.7253L35.4456 81.2346L36.806 79.5989L38.219 79.4354L38.6569 78.8921L41.8098 77.8581L43.2227 76.9352L43.3862 75.7902L43.9292 75.4105L43.5497 73.9384L42.2477 72.3612L41.3777 71.7653L41.9733 71.1111L41.3777 70.6204L41.2142 70.0771L40.2859 69.6974L39.8013 69.8609L39.1473 70.6788H38.3824L37.4599 69.4812L36.3155 66.5955L34.7975 65.6141L32.5087 65.1818L32.4561 64.4166L33.3787 62.0799L33.3261 61.3731L32.5671 60.2807L33.0575 58.6509L32.8356 58.0492L32.2927 57.6695L30.5002 57.0737L32.2401 55.549V54.7896L31.9657 54.0243L31.3117 53.4285L28.8128 52.4471L28.4333 52.009L30.0097 50.8699V50.4317L29.1397 49.3452L29.7353 46.8975L29.5193 46.2433L28.9762 45.811H28.1588L24.4045 46.845L22.4135 47.7971L20.405 46.5529L20.0372 46.1498L20.1364 45.8869L21.818 43.9066L22.5712 43.7489L23.7039 42.2476L23.4703 41.4473L24.5038 40.314L24.7081 38.9412L26.6057 39.0113L26.6758 38.4739L28.1822 37.5393L28.4566 37.0953L28.2464 36.5754L28.8478 36.406L29.6477 36.9084H31.2825L31.4168 38.4739L32.5495 39.578L33.186 39.8759L33.583 39.5429L34.3537 39.578L35.6558 40.5769L36.2513 41.4473L36.8177 41.6109L37.022 42.0782L38.254 41.7452L37.9562 40.314L38.0905 39.6423L39.0889 38.4681L39.124 36.2424L38.9079 35.5882L37.6526 35.372L37.8219 34.4724L38.254 34.0401L37.2556 31.8028L35.9185 31.0375L36.2221 30.4651L37.419 30.5001L37.6876 29.5654L38.289 29.7641L39.7721 31.6334L40.1049 32.9711L41.004 33.7364L41.5704 33.5377L41.6346 32.568L42.1718 32.3344L42.7732 33.4384L45.7042 34.5075L46.942 35.4713L47.9404 35.6057L49.0439 35.2377L49.476 33.7364L49.511 31.2361L50.0774 31.2011L50.5095 31.7677L52.1093 31.8086L52.8099 31.2361L52.7457 30.4651L53.5806 27.7312L52.6756 26.7965L52.7457 26.3642L53.3471 25.9962L53.9777 26.7323L54.544 26.6622L56.5467 25.8969L57.3116 24.1269L60.1083 23.3909L60.4178 22.8593L61.5855 22.1583L63.3547 21.5566L66.6594 21.0893L67.6928 20.7563L68.4285 20.0903L69.3627 18.3203L68.9073 17.0001L70.4546 15.3586L72.2354 15.0549L72.9944 13.7347L73.1053 12.7474L72.539 11.6492L72.4631 9.56957L72.9535 7.75283L73.5199 7.06936L76.3225 6.50272L77.9865 6.76559L78.8214 5.93025V5.43954L79.995 4.94885L80.2928 4.56915L80.3687 3.39498L81.3146 2.64141L82.7918 3.13211L84.8003 3.09122L88.2393 3.58775L88.6188 3.20805V2.56547L87.8248 1.54318L87.9415 1.12259L90.3588 0.328125L91.4973 1.73012L91.6491 2.86923L91.1937 3.58775L88.6188 5.10074L87.1066 6.95253V7.71194L88.5079 8.77511L89.4888 10.0194L91.6083 11.0066H92.1746L92.4432 10.6678L92.7059 8.0157L93.4241 6.68966L96.2617 4.1135L96.4135 3.01527L97.1317 2.37269L97.1726 1.27447L98.533 1.35041L98.9534 1.69507L98.9884 3.13211L99.8817 3.58775L100.109 4.1135L100.337 7.48411L102.112 7.90471L103.286 8.5064L104.874 8.54729L105.936 10.0953L107.711 10.9657L108.395 13.0512L109.533 13.2031L110.701 14.5642L111.764 14.9439L112.972 16.3809L113.2 18.1977L114.035 18.8052H114.905L115.168 19.068L115.886 21.1126L116.341 21.3813L117.287 21.1886L118.992 24.6001L120.317 25.0499L121.222 26.1481L122.437 26.189L123.721 27.737L124.854 27.5501L128.188 28.7593L129.134 29.9744L128.34 31.8671L128.602 33.0763L128.906 33.2281L129.396 32.9653L130.08 33.6838L130.798 33.4969L131.253 33.8357L132.386 33.9116L133.028 34.8171L136.549 35.1208L137.343 34.5542H137.985L139.387 35.15Z" fill="#3C5F63" fill-opacity="0.7" stroke="#E5E4E9" stroke-width="0.771084" mask="url(#path-1-inside-1_249_4309)"/>
</svg>
